PathFileType	4	(X/Y/Z)	 s02c0303.trc
DataRate	CameraRate	NumFrames	NumMarkers	Units	OrigDataRate	OrigDataStartFrame	OrigNumFrames
200	200	4	50	mm	200	1751	2000
Frame#	Time	racr			lacr			c7			jug			rlel			rdr			llel			ldr			s2			lic			ric			lasi			rasi			rpsi			lpsi			rgt			lgt			rth1			rth2			rth3			rth4			rlfc			rmfc			rsh1			rsh2			rsh3			rsh4			rlmal			rmmal			rtoe			rmt5			rmt1			lth1			lth2			lth4			lth3			llfc			lmfc			lsh1			lsh2			lsh3			lsh4			llmal			lmmal			lcal			ltoe			lmt5			SBIKE			LBIKE			RBIKE			
		X1	Y1	Z1	X2	Y2	Z2	X3	Y3	Z3	X4	Y4	Z4	X5	Y5	Z5	X6	Y6	Z6	X7	Y7	Z7	X8	Y8	Z8	X9	Y9	Z9	X10	Y10	Z10	X11	Y11	Z11	X12	Y12	Z12	X13	Y13	Z13	X14	Y14	Z14	X15	Y15	Z15	X16	Y16	Z16	X17	Y17	Z17	X18	Y18	Z18	X19	Y19	Z19	X20	Y20	Z20	X21	Y21	Z21	X22	Y22	Z22	X23	Y23	Z23	X24	Y24	Z24	X25	Y25	Z25	X26	Y26	Z26	X27	Y27	Z27	X28	Y28	Z28	X29	Y29	Z29	X30	Y30	Z30	X31	Y31	Z31	X32	Y32	Z32	X33	Y33	Z33	X34	Y34	Z34	X35	Y35	Z35	X36	Y36	Z36	X37	Y37	Z37	X38	Y38	Z38	X39	Y39	Z39	X40	Y40	Z40	X41	Y41	Z41	X42	Y42	Z42	X43	Y43	Z43	X44	Y44	Z44	X45	Y45	Z45	X46	Y46	Z46	X47	Y47	Z47	X48	Y48	Z48	X49	Y49	Z49	X50	Y50	Z50	
1751	8.7550	763.147851	1232.742749	-116.756401	830.881531	1191.599244	-457.752020	802.960936	1245.988745	-296.674921	729.982209	1124.664940	-282.879222	615.866450	1007.939927	-47.449631	726.827471	848.918011	-121.280494	669.135063	1019.073489	-630.488940	720.784337	843.681325	-517.884951	258.495181	1218.726643	-379.239028	392.363239	1152.340868	-506.408777	358.938867	1202.721339	-217.092115	419.369181	1108.113860	-468.494146	403.362390	1169.711401	-249.115799	276.376066	1249.389998	-346.713708	300.566165	1240.205321	-429.247220	325.853769	1137.662825	-175.937003	309.280555	1074.288552	-527.441153	401.714050	1090.808625	-165.548899	479.826474	1049.905376	-162.623083	529.310930	987.015869	-130.643425	500.334849	1066.460432	-190.070367	614.449178	863.333488	-148.516738	608.981861	838.399845	-259.546301	572.179523	758.101616	-127.636401	530.576348	675.789307	-145.950319	469.027257	623.451260	-136.106114	546.363862	670.305350	-181.631169	384.955901	530.953679	-137.363504	397.404588	547.846604	-217.850962	561.315408	403.237466	-188.029245	456.124038	423.503008	-123.110829	482.565568	431.024515	-231.160216	367.228289	949.861508	-543.597126	408.292340	872.364126	-544.153149	441.287552	880.400675	-528.932269	402.669781	783.326015	-540.929628	418.031652	684.047352	-522.734130	423.870768	654.341542	-423.019213	357.070673	598.162389	-539.252666	324.805067	520.362591	-520.623086	253.174491	465.204895	-516.571889	345.044310	510.736947	-485.900091	181.910663	385.600046	-497.108367	200.088118	373.915990	-421.700472	111.980271	407.325139	-450.069782	251.479271	157.142944	-434.478808	175.774474	228.911853	-502.465863	-125.831805	872.409113	-306.706388	37.229796	87.359042	-514.118811	33.575532	83.623105	-114.080920	
1752	8.7600	763.511120	1231.880509	-116.190999	831.237916	1193.122281	-457.684694	803.539956	1246.010504	-296.203406	729.813691	1125.064404	-283.181362	614.344707	1007.701848	-48.747047	726.638966	849.312746	-121.619168	669.747812	1019.557933	-629.555273	720.927984	843.601766	-517.546181	259.290031	1220.402614	-378.370888	392.683347	1154.983332	-505.671545	358.862061	1202.344932	-216.272258	419.761980	1110.105783	-468.631099	403.594210	1169.525603	-248.082538	277.284110	1251.778963	-345.657470	301.726901	1242.373774	-428.686145	325.388066	1137.030850	-175.846912	310.813374	1076.600780	-528.034331	400.736573	1088.042779	-164.920126	477.882735	1045.168602	-162.680369	525.365962	981.671286	-129.092920	498.923863	1061.760549	-188.866002	609.796464	855.496735	-148.320787	603.420334	831.404961	-258.831662	567.810212	749.281399	-127.460642	535.879966	668.647186	-140.917787	467.402633	612.428185	-136.447396	543.644459	661.182349	-181.517715	385.882519	519.356090	-137.623653	397.926839	536.065312	-218.596058	565.775826	396.175509	-187.810896	459.945692	413.682759	-122.964129	486.364284	422.125003	-230.936677	370.743059	953.041470	-543.570598	413.204048	876.336694	-544.278645	446.105005	884.901202	-529.324027	409.194256	787.226106	-541.251539	425.584515	688.039267	-523.419461	431.822338	658.122604	-423.476541	363.360526	602.494599	-539.555710	328.760418	525.729097	-520.734774	255.638412	472.611906	-516.737998	348.547259	515.674790	-485.856678	181.354951	394.771899	-497.460218	199.209590	382.542148	-421.649413	111.920135	417.937494	-449.770869	245.330350	164.498706	-434.441859	171.204718	238.070265	-502.400852	-125.748198	872.456681	-306.549095	37.242024	87.450514	-514.083987	33.583967	83.623105	-114.074562	
1753	8.7650	764.203175	1231.221747	-115.854512	831.619535	1194.977881	-457.772083	804.142193	1246.188611	-295.976750	730.130731	1125.370049	-283.497634	613.073576	1008.104164	-49.686661	726.540894	849.593527	-121.943947	670.231855	1020.165217	-628.576120	721.053409	843.563723	-517.238404	259.917496	1221.699780	-377.930545	393.043407	1157.390052	-505.272804	359.033142	1201.808604	-215.176628	420.051931	1112.034706	-468.484536	403.596370	1168.940973	-247.067902	278.486694	1253.515618	-344.910737	302.618697	1244.401074	-427.723230	324.544911	1135.560295	-175.650467	312.591994	1078.761147	-528.729764	399.546858	1084.679269	-164.139925	475.788699	1040.194530	-161.562387	521.527278	975.500930	-128.102383	497.363361	1056.521834	-187.424948	602.370776	847.812811	-146.195165	597.487604	822.441720	-258.187396	562.498865	740.414602	-126.873184	529.479821	658.003734	-142.891414	465.546553	601.108515	-136.645488	540.025181	651.488878	-181.318436	387.613429	507.395330	-137.521335	398.643113	523.905675	-219.231258	569.749711	388.143905	-187.675761	463.404903	403.397717	-122.943475	489.631950	412.700558	-231.119389	374.522463	956.123730	-543.389852	418.261542	880.094210	-544.142668	451.029209	889.248564	-529.441936	415.743066	790.925199	-541.277710	432.857856	691.854532	-523.980614	439.403133	661.950928	-423.596517	369.464955	606.910013	-539.708964	332.923283	531.417695	-521.094561	258.032636	480.144723	-516.842804	351.821054	520.959000	-485.381436	180.937826	404.337171	-497.703910	198.557261	391.594331	-421.618512	111.852321	428.901011	-449.708579	239.783194	172.656831	-434.555499	167.160415	247.617396	-502.358834	-125.649526	872.483851	-306.466079	37.247445	87.499301	-514.065751	33.600201	83.637678	-114.067375	
1754	8.7700	764.993350	1230.685463	-115.854518	831.915693	1197.084872	-458.144298	804.838605	1246.472801	-295.955272	730.102362	1126.048974	-284.096008	612.330594	1008.393155	-50.845971	726.538380	849.709182	-122.339809	670.634492	1020.748491	-627.670143	721.148271	843.574284	-516.968948	260.407348	1222.637403	-377.266520	393.456844	1159.416813	-504.490578	358.649959	1200.958498	-214.230191	420.418003	1113.936184	-468.384118	403.687766	1168.224258	-245.677307	278.444563	1255.401036	-343.323267	303.130788	1246.511857	-426.358113	323.350358	1133.591357	-175.379469	314.498371	1080.681457	-529.371544	398.221403	1080.847208	-163.211354	473.505005	1034.987230	-159.971551	517.566611	968.897854	-127.050072	495.737123	1051.052041	-185.793490	595.380158	838.629273	-145.321412	591.306666	814.584982	-257.190053	556.449039	731.455878	-125.858921	526.007514	648.172585	-142.674050	463.539396	589.484605	-136.747385	537.571621	642.425190	-180.987751	388.610124	495.297422	-138.121369	399.366179	511.741078	-219.822229	573.125929	379.265523	-187.475133	466.472392	392.904104	-122.999688	492.407983	402.958098	-231.340256	378.549492	959.077821	-543.151342	423.449350	883.804298	-543.674127	456.050715	893.411330	-529.304393	422.469084	794.608832	-541.189811	440.250251	695.646694	-524.852012	446.583745	665.735163	-423.426945	375.440523	611.354883	-539.799819	336.772246	536.998067	-521.030693	260.428955	487.851838	-516.963959	355.193770	526.094596	-485.099882	180.630682	414.093850	-497.829892	195.274954	402.784308	-421.196537	111.853636	439.730110	-449.655397	235.025571	181.161975	-434.505826	163.761508	257.464671	-502.365468	-125.558035	872.516836	-306.433755	37.269523	87.542561	-514.029894	33.925943	83.429052	-113.931082	
